<?xml version="1.0" standalone="no"?>
<!DOCTYPE svg PUBLIC "-//W3C//DTD SVG 20010904//EN"
 "http://www.w3.org/TR/2001/REC-SVG-20010904/DTD/svg10.dtd">
<svg version="1.0" xmlns="http://www.w3.org/2000/svg"
 width="626.000000pt" height="626.000000pt" viewBox="0 0 626.000000 626.000000"
 preserveAspectRatio="xMidYMid meet">
<metadata>
Created by potrace 1.11, written by Peter Selinger 2001-2013
</metadata>
<g transform="translate(0.000000,626.000000) scale(0.100000,-0.100000)"
fill="#000000" stroke="none">
<path d="M3000 6255 c-8 -2 -55 -9 -105 -15 -356 -47 -691 -214 -950 -474
-268 -269 -416 -559 -482 -946 -17 -99 -18 -216 -16 -2039 3 -1847 4 -1935 21
-1965 32 -55 38 -56 400 -56 182 0 332 -3 332 -8 0 -4 -17 -30 -37 -58 -21
-27 -58 -78 -83 -113 -25 -34 -79 -108 -120 -164 -170 -230 -185 -255 -184
-305 1 -39 6 -50 37 -79 l37 -33 1275 0 c1095 0 1280 2 1304 14 47 25 77 88
61 130 -4 12 -101 149 -215 305 -114 156 -209 290 -212 297 -4 10 63 13 340
16 l345 3 25 23 c14 13 31 37 37 53 9 21 11 486 7 1961 -4 1764 -6 1942 -22
2033 -63 372 -219 673 -485 935 -224 221 -479 365 -775 439 -152 38 -446 63
-535 46z m273 -240 c377 -31 738 -230 990 -546 62 -78 161 -238 152 -247 -3
-3 -22 7 -43 21 -49 32 -169 81 -252 103 -95 25 -311 25 -410 0 -190 -47 -356
-152 -476 -301 -51 -63 -66 -85 -86 -122 -15 -31 -23 -29 -49 15 -83 135 -228
267 -372 337 -133 64 -234 87 -387 87 -154 0 -253 -23 -390 -90 -52 -26 -98
-49 -103 -51 -8 -3 25 62 67 132 65 107 212 268 338 369 202 164 485 273 768
297 93 8 113 8 253 -4z m829 -907 c154 -40 315 -169 389 -313 45 -87 57 -123
72 -222 24 -156 -28 -408 -127 -618 -86 -180 -179 -308 -317 -439 -580 -545
-1496 -518 -2040 61 -170 181 -307 440 -359 678 -25 112 -35 248 -24 315 36
219 163 393 359 493 133 68 298 86 447 48 217 -56 396 -224 469 -441 20 -60
22 -92 28 -395 4 -244 10 -336 19 -353 19 -33 71 -62 112 -62 39 0 93 29 108
57 6 10 12 162 14 338 5 310 6 323 31 402 14 45 44 113 65 150 39 66 138 174
198 214 162 110 353 140 556 87z m-2363 -1472 c243 -359 597 -600 1033 -701
103 -24 116 -29 108 -43 -6 -10 -48 -71 -95 -137 -46 -66 -104 -149 -129 -185
-24 -36 -91 -131 -148 -212 -100 -142 -249 -356 -460 -658 -186 -267 -227
-324 -290 -417 -35 -50 -66 -89 -70 -86 -8 4 -11 2513 -3 2513 2 0 27 -33 54
-74z m2842 -1211 c2 -709 0 -1279 -5 -1278 -4 1 -17 14 -27 30 -10 15 -39 57
-64 93 -26 36 -62 88 -81 115 -18 28 -46 68 -62 90 -56 79 -102 144 -295 423
-109 155 -246 351 -305 435 -59 84 -125 178 -147 210 -22 32 -71 101 -108 155
-108 154 -140 203 -136 206 2 2 51 13 107 25 178 36 363 106 527 200 194 112
411 317 540 512 26 38 49 69 50 67 2 -2 5 -579 6 -1283z m-1393 292 c35 -50
91 -132 126 -182 158 -227 267 -382 286 -410 12 -16 59 -84 105 -150 46 -66
93 -133 105 -150 32 -45 203 -288 266 -380 108 -157 167 -241 235 -339 39 -54
68 -100 67 -102 -8 -7 -500 -6 -507 2 -4 5 -86 117 -181 249 -95 132 -212 293
-259 357 -47 65 -117 160 -155 213 -59 81 -74 96 -107 105 -75 20 -106 3 -184
-105 -39 -53 -105 -144 -148 -203 -275 -377 -354 -486 -403 -554 l-55 -78
-266 0 c-218 0 -264 2 -260 13 3 8 79 119 169 248 90 129 171 245 180 259 10
14 34 48 53 75 20 28 47 66 60 85 36 52 94 135 160 230 80 114 120 172 184
266 30 43 59 84 63 89 9 10 181 256 316 450 40 58 76 105 80 105 4 0 35 -42
70 -93z m7 -1179 c33 -44 74 -100 90 -123 17 -23 57 -79 90 -124 33 -46 69
-96 80 -111 11 -16 41 -58 68 -94 26 -35 50 -72 53 -80 6 -14 -41 -16 -445
-16 -248 0 -451 4 -451 8 0 5 44 69 98 143 54 74 119 163 145 199 171 237 203
279 207 280 3 0 32 -37 65 -82z m603 -830 c67 -91 215 -293 272 -373 30 -42
56 -82 58 -90 3 -13 -126 -15 -997 -15 -567 0 -1001 4 -1001 9 0 8 64 99 278
394 l93 127 629 0 629 0 39 -52z"/>
<path d="M2260 4750 c-87 -41 -140 -121 -140 -210 0 -53 31 -118 75 -159 119
-110 300 -64 360 92 28 73 8 163 -49 225 -57 64 -170 87 -246 52z"/>
<path d="M3846 4756 c-57 -21 -87 -46 -120 -100 -73 -117 -11 -283 118 -321
95 -29 161 -13 227 54 64 63 83 136 59 223 -31 112 -175 184 -284 144z"/>
</g>
</svg>
